<svg xmlns="http://www.w3.org/2000/svg" width="1024" height="1024" viewBox="0 0 1024 1024"><rect width="1024" height="1024" rx="230.4" fill="#EBC55C"></rect><g transform="translate(240.9192727272727 235.7061818181818) scale(5.213090909090909)"><path d="M30 14 C 8 22 2 52 22 74 C 44 98 86 92 96 60 C 103 38 88 18 67 20 C 51 21 41 33 42 49 C 43 61 52 69 64 67 C 56 66 52 58 53 50 C 54 40 63 34 73 37 C 85 41 90 56 84 69 C 76 86 50 90 33 76 C 14 60 16 32 38 24 C 33 20 31 16 30 14 Z" fill="#11352A"></path></g></svg>
