<svg xmlns="http://www.w3.org/2000/svg" width="720" height="180" viewBox="0 0 720 180">
<rect width="720" height="180" fill="#11352A"></rect>
<g transform="translate(36 30) scale(1.0909090909090908)"><path d="M30 14 C 8 22 2 52 22 74 C 44 98 86 92 96 60 C 103 38 88 18 67 20 C 51 21 41 33 42 49 C 43 61 52 69 64 67 C 56 66 52 58 53 50 C 54 40 63 34 73 37 C 85 41 90 56 84 69 C 76 86 50 90 33 76 C 14 60 16 32 38 24 C 33 20 31 16 30 14 Z" fill="#EBC55C"></path></g>
<text x="186" y="118" font-family="Space Grotesk, Arial, sans-serif" font-size="86" font-weight="700" letter-spacing="-2.4" fill="#F0ECDD">Bellwether</text>
</svg>
